<svg width="326" height="250" viewBox="0 0 326 250" fill="none" xmlns="http://www.w3.org/2000/svg">
<rect x="174.5" y="249.5" width="9" height="249" transform="rotate(-180 174.5 249.5)" stroke="#151EE3"/>
<mask id="path-2-outside-1_489_2" maskUnits="userSpaceOnUse" x="4.5" y="91" width="319" height="63" fill="black">
<rect fill="white" x="4.5" y="91" width="319" height="63"/>
<path d="M65.9603 146.4C65.9603 146.8 66.2403 147.12 66.8003 147.36C67.4403 147.6 68.0803 147.72 68.7203 147.72V150H47.6003V147.72C48.2403 147.72 48.8403 147.6 49.4003 147.36C50.0403 147.12 50.3603 146.8 50.3603 146.4V121.44C50.3603 117.36 49.3603 113.88 47.3603 111C45.3603 108.04 42.3603 106.56 38.3603 106.56C34.2803 106.56 30.9603 107.92 28.4003 110.64C25.9203 113.36 24.6803 117.28 24.6803 122.4V146.4C24.6803 146.8 24.9603 147.12 25.5203 147.36C26.1603 147.6 26.8003 147.72 27.4403 147.72V150H6.44032V147.72C7.08032 147.72 7.68032 147.6 8.24032 147.36C8.88032 147.12 9.20032 146.8 9.20032 146.4V98.4C9.20032 98 8.88032 97.68 8.24032 97.44C7.68032 97.2 7.12032 97.08 6.56032 97.08V94.8H24.6803V99.72C26.7603 97.8 29.2003 96.32 32.0003 95.28C34.8803 94.16 37.8003 93.6 40.7603 93.6C45.8803 93.6 50.3203 94.68 54.0803 96.84C57.9203 99 60.8403 101.92 62.8403 105.6C64.9203 109.2 65.9603 113.24 65.9603 117.72V146.4ZM103.68 151.44C97.7597 151.44 92.5197 150.2 87.9597 147.72C83.4797 145.16 79.9597 141.68 77.3997 137.28C74.9197 132.88 73.6797 127.92 73.6797 122.4C73.6797 116.96 74.9197 112 77.3997 107.52C79.9597 103.04 83.5197 99.52 88.0797 96.96C92.6397 94.32 97.8397 93 103.68 93C109.28 93 114.36 94.28 118.92 96.84C123.48 99.32 127.08 102.8 129.72 107.28C132.36 111.68 133.68 116.72 133.68 122.4C133.68 127.36 132.48 132.08 130.08 136.56C127.76 140.96 124.32 144.56 119.76 147.36C115.2 150.08 109.84 151.44 103.68 151.44ZM103.68 137.64C108.4 137.64 112.2 136.28 115.08 133.56C118.04 130.76 119.52 127.16 119.52 122.76C119.52 118.2 118.04 114.44 115.08 111.48C112.2 108.52 108.4 107.04 103.68 107.04C99.2797 107.04 95.5997 108.52 92.6397 111.48C89.6797 114.36 88.1997 118 88.1997 122.4C88.1997 127.04 89.6797 130.76 92.6397 133.56C95.5997 136.28 99.2797 137.64 103.68 137.64ZM198.157 146.4C198.157 146.8 198.437 147.12 198.997 147.36C199.637 147.6 200.277 147.72 200.917 147.72V150H179.797V147.72C180.437 147.72 181.037 147.6 181.597 147.36C182.237 147.12 182.557 146.8 182.557 146.4V121.44C182.557 117.36 181.557 113.88 179.557 111C177.557 108.04 174.557 106.56 170.557 106.56C166.477 106.56 163.157 107.92 160.597 110.64C158.117 113.36 156.877 117.28 156.877 122.4V146.4C156.877 146.8 157.157 147.12 157.717 147.36C158.357 147.6 158.997 147.72 159.637 147.72V150H138.637V147.72C139.277 147.72 139.877 147.6 140.437 147.36C141.077 147.12 141.397 146.8 141.397 146.4V98.4C141.397 98 141.077 97.68 140.437 97.44C139.877 97.2 139.317 97.08 138.757 97.08V94.8H156.877V99.72C158.957 97.8 161.397 96.32 164.197 95.28C167.077 94.16 169.997 93.6 172.957 93.6C178.077 93.6 182.517 94.68 186.277 96.84C190.117 99 193.037 101.92 195.037 105.6C197.117 109.2 198.157 113.24 198.157 117.72V146.4ZM234.557 152.52C229.437 152.52 224.677 151.24 220.277 148.68C215.877 146.12 212.357 142.64 209.717 138.24C207.157 133.84 205.877 129.04 205.877 123.84C205.877 117.68 207.157 112.28 209.717 107.64C212.357 102.92 215.877 99.32 220.277 96.84C224.677 94.28 229.517 93 234.797 93C238.557 93 241.757 93.44 244.397 94.32C247.117 95.2 249.277 96.28 250.877 97.56C252.557 98.76 254.637 100.48 257.117 102.72C257.277 102.88 257.477 102.96 257.717 102.96C258.037 102.96 258.397 102.84 258.797 102.6C259.277 102.36 259.637 102.12 259.877 101.88L261.437 103.56L248.477 115.56L246.917 113.88C247.317 113.56 247.637 113.12 247.877 112.56C248.197 111.92 248.237 111.44 247.997 111.12C245.117 107.6 241.157 105.84 236.117 105.84C231.557 105.84 227.717 107.36 224.597 110.4C221.557 113.44 220.037 117.4 220.037 122.28C220.037 127.32 221.517 131.36 224.477 134.4C227.437 137.44 231.317 138.96 236.117 138.96C238.517 138.96 240.477 138.68 241.997 138.12C243.517 137.48 245.237 136.32 247.157 134.64C247.317 134.48 247.397 134.28 247.397 134.04C247.397 133.56 247.117 133.04 246.557 132.48L247.997 130.68L260.957 141.48L259.517 143.16C258.237 142.44 257.357 142.32 256.877 142.8C253.917 146.08 250.797 148.52 247.517 150.12C244.317 151.72 239.997 152.52 234.557 152.52ZM291.88 92.28C298.04 92.28 303.36 93.64 307.84 96.36C312.32 99 315.72 102.6 318.04 107.16C320.36 111.72 321.52 116.76 321.52 122.28C321.52 123.96 321.4 125.64 321.16 127.32H277.24C277.56 131.16 279.24 134.16 282.28 136.32C285.32 138.48 288.96 139.56 293.2 139.56C296.08 139.56 298.48 139.16 300.4 138.36C302.4 137.56 304.16 136.36 305.68 134.76C305.84 134.44 305.92 134.24 305.92 134.16C305.92 133.84 305.8 133.52 305.56 133.2C305.32 132.8 305.08 132.52 304.84 132.36L306.28 130.56L319.6 141L318.28 142.8C317.08 142.08 316.24 142 315.76 142.56C310.16 149.28 302.64 152.64 293.2 152.64C287.12 152.64 281.76 151.32 277.12 148.68C272.48 145.96 268.88 142.36 266.32 137.88C263.84 133.32 262.6 128.28 262.6 122.76C262.6 116.92 263.84 111.68 266.32 107.04C268.8 102.4 272.24 98.8 276.64 96.24C281.12 93.6 286.2 92.28 291.88 92.28ZM307.12 116.16C306.8 112.88 305.12 110.12 302.08 107.88C299.12 105.56 295.76 104.4 292 104.4C288.24 104.4 285 105.56 282.28 107.88C279.56 110.12 277.92 112.88 277.36 116.16H307.12Z"/>
</mask>
<path d="M66.8003 147.36L66.4064 148.279L66.4276 148.288L66.4492 148.296L66.8003 147.36ZM68.7203 147.72H69.7203V146.72H68.7203V147.72ZM68.7203 150V151H69.7203V150H68.7203ZM47.6003 150H46.6003V151H47.6003V150ZM47.6003 147.72V146.72H46.6003V147.72H47.6003ZM49.4003 147.36L49.0492 146.424L49.0276 146.432L49.0064 146.441L49.4003 147.36ZM47.3603 111L46.5317 111.56L46.539 111.57L47.3603 111ZM28.4003 110.64L27.6721 109.955L27.6667 109.96L27.6614 109.966L28.4003 110.64ZM25.5203 147.36L25.1264 148.279L25.1476 148.288L25.1692 148.296L25.5203 147.36ZM27.4403 147.72H28.4403V146.72H27.4403V147.72ZM27.4403 150V151H28.4403V150H27.4403ZM6.44032 150H5.44032V151H6.44032V150ZM6.44032 147.72V146.72H5.44032V147.72H6.44032ZM8.24032 147.36L7.8892 146.424L7.8676 146.432L7.8464 146.441L8.24032 147.36ZM8.24032 97.44L7.8464 98.3591L7.8676 98.3682L7.8892 98.3763L8.24032 97.44ZM6.56032 97.08H5.56032V98.08H6.56032V97.08ZM6.56032 94.8V93.8H5.56032V94.8H6.56032ZM24.6803 94.8H25.6803V93.8H24.6803V94.8ZM24.6803 99.72H23.6803V102.004L25.3586 100.455L24.6803 99.72ZM32.0003 95.28L32.3485 96.2174L32.3557 96.2148L32.3628 96.212L32.0003 95.28ZM54.0803 96.84L53.5822 97.7071L53.5901 97.7116L54.0803 96.84ZM62.8403 105.6L61.9617 106.078L61.9679 106.089L61.9745 106.1L62.8403 105.6ZM64.9603 146.4C64.9603 147.394 65.6981 147.976 66.4064 148.279L67.1942 146.441C67.0993 146.4 67.0326 146.363 66.9875 146.333C66.9426 146.303 66.9252 146.284 66.9229 146.281C66.9218 146.28 66.9336 146.294 66.9448 146.323C66.9564 146.352 66.9603 146.38 66.9603 146.4H64.9603ZM66.4492 148.296C67.1938 148.576 67.9525 148.72 68.7203 148.72V146.72C68.2082 146.72 67.6869 146.624 67.1514 146.424L66.4492 148.296ZM67.7203 147.72V150H69.7203V147.72H67.7203ZM68.7203 149H47.6003V151H68.7203V149ZM48.6003 150V147.72H46.6003V150H48.6003ZM47.6003 148.72C48.3688 148.72 49.1035 148.575 49.7942 148.279L49.0064 146.441C48.5771 146.625 48.1119 146.72 47.6003 146.72V148.72ZM49.7514 148.296C50.4756 148.025 51.3603 147.469 51.3603 146.4H49.3603C49.3603 146.362 49.3688 146.319 49.3865 146.279C49.4032 146.241 49.4192 146.227 49.4132 146.233C49.4059 146.24 49.3784 146.265 49.3165 146.301C49.2548 146.337 49.1679 146.379 49.0492 146.424L49.7514 148.296ZM51.3603 146.4V121.44H49.3603V146.4H51.3603ZM51.3603 121.44C51.3603 117.19 50.3161 113.503 48.1817 110.43L46.539 111.57C48.4045 114.257 49.3603 117.53 49.3603 121.44H51.3603ZM48.1889 110.44C45.9783 107.168 42.6459 105.56 38.3603 105.56V107.56C42.0747 107.56 44.7423 108.912 46.5317 111.56L48.1889 110.44ZM38.3603 105.56C34.0329 105.56 30.4396 107.014 27.6721 109.955L29.1285 111.325C31.481 108.826 34.5278 107.56 38.3603 107.56V105.56ZM27.6614 109.966C24.9575 112.932 23.6803 117.129 23.6803 122.4H25.6803C25.6803 117.431 26.8832 113.788 29.1393 111.314L27.6614 109.966ZM23.6803 122.4V146.4H25.6803V122.4H23.6803ZM23.6803 146.4C23.6803 147.394 24.4181 147.976 25.1264 148.279L25.9142 146.441C25.8193 146.4 25.7526 146.363 25.7075 146.333C25.6626 146.303 25.6452 146.284 25.6429 146.281C25.6418 146.28 25.6536 146.294 25.6648 146.323C25.6764 146.352 25.6803 146.38 25.6803 146.4H23.6803ZM25.1692 148.296C25.9138 148.576 26.6725 148.72 27.4403 148.72V146.72C26.9282 146.72 26.4069 146.624 25.8714 146.424L25.1692 148.296ZM26.4403 147.72V150H28.4403V147.72H26.4403ZM27.4403 149H6.44032V151H27.4403V149ZM7.44032 150V147.72H5.44032V150H7.44032ZM6.44032 148.72C7.20879 148.72 7.94352 148.575 8.63424 148.279L7.8464 146.441C7.41712 146.625 6.95185 146.72 6.44032 146.72V148.72ZM8.59144 148.296C9.31556 148.025 10.2003 147.469 10.2003 146.4H8.20032C8.20032 146.362 8.20879 146.319 8.22651 146.279C8.24319 146.241 8.25917 146.227 8.25321 146.233C8.24589 146.24 8.21841 146.265 8.15645 146.301C8.09482 146.337 8.00785 146.379 7.8892 146.424L8.59144 148.296ZM10.2003 146.4V98.4H8.20032V146.4H10.2003ZM10.2003 98.4C10.2003 97.3313 9.31557 96.7752 8.59144 96.5037L7.8892 98.3763C8.00785 98.4208 8.09482 98.4628 8.15645 98.4988C8.21841 98.5349 8.24589 98.5598 8.25321 98.5671C8.25917 98.5731 8.24319 98.5587 8.22651 98.5211C8.20879 98.4813 8.20032 98.4377 8.20032 98.4H10.2003ZM8.63424 96.5209C7.96081 96.2322 7.26727 96.08 6.56032 96.08V98.08C6.97337 98.08 7.39983 98.1678 7.8464 98.3591L8.63424 96.5209ZM7.56032 97.08V94.8H5.56032V97.08H7.56032ZM6.56032 95.8H24.6803V93.8H6.56032V95.8ZM23.6803 94.8V99.72H25.6803V94.8H23.6803ZM25.3586 100.455C27.3376 98.628 29.6638 97.2146 32.3485 96.2174L31.6521 94.3426C28.7368 95.4254 26.183 96.972 24.002 98.9852L25.3586 100.455ZM32.3628 96.212C35.1324 95.1349 37.9297 94.6 40.7603 94.6V92.6C37.6709 92.6 34.6283 93.1851 31.6379 94.348L32.3628 96.212ZM40.7603 94.6C45.7373 94.6 49.9991 95.6487 53.5822 97.7071L54.5784 95.9729C50.6415 93.7113 46.0234 92.6 40.7603 92.6V94.6ZM53.5901 97.7116C57.275 99.7844 60.0563 102.572 61.9617 106.078L63.7189 105.122C61.6244 101.268 58.5656 98.2156 54.5706 95.9684L53.5901 97.7116ZM61.9745 106.1C63.9598 109.536 64.9603 113.402 64.9603 117.72H66.9603C66.9603 113.078 65.8808 108.864 63.7062 105.1L61.9745 106.1ZM64.9603 117.72V146.4H66.9603V117.72H64.9603ZM87.9597 147.72L87.4636 148.588L87.4727 148.593L87.4819 148.598L87.9597 147.72ZM77.3997 137.28L76.5285 137.771L76.5353 137.783L77.3997 137.28ZM77.3997 107.52L76.5314 107.024L76.5248 107.036L77.3997 107.52ZM88.0797 96.96L88.5693 97.8321L88.5807 97.8254L88.0797 96.96ZM118.92 96.84L118.43 97.7121L118.442 97.7185L118.92 96.84ZM129.72 107.28L128.858 107.788L128.862 107.794L129.72 107.28ZM130.08 136.56L129.198 136.088L129.195 136.094L130.08 136.56ZM119.76 147.36L120.272 148.219L120.283 148.212L119.76 147.36ZM115.08 133.56L115.766 134.287L115.767 134.286L115.08 133.56ZM115.08 111.48L114.363 112.177L114.373 112.187L115.08 111.48ZM92.6397 111.48L93.3371 112.197L93.3468 112.187L92.6397 111.48ZM92.6397 133.56L91.9525 134.286L91.9577 134.291L91.9631 134.296L92.6397 133.56ZM103.68 150.44C97.9029 150.44 92.8313 149.231 88.4375 146.842L87.4819 148.598C92.2081 151.169 97.6165 152.44 103.68 152.44V150.44ZM88.4558 146.852C84.1264 144.378 80.7343 141.023 78.264 136.777L76.5353 137.783C79.1851 142.337 82.833 145.942 87.4636 148.588L88.4558 146.852ZM78.2708 136.789C75.883 132.553 74.6797 127.764 74.6797 122.4H72.6797C72.6797 128.076 73.9564 133.207 76.5285 137.771L78.2708 136.789ZM74.6797 122.4C74.6797 117.119 75.8818 112.327 78.2746 108.004L76.5248 107.036C73.9576 111.673 72.6797 116.801 72.6797 122.4H74.6797ZM78.2679 108.016C80.7368 103.696 84.1649 100.305 88.5692 97.832L87.5902 96.088C82.8745 98.7354 79.1826 102.384 76.5314 107.024L78.2679 108.016ZM88.5807 97.8254C92.9724 95.2829 97.9961 94 103.68 94V92C97.6833 92 92.307 93.3571 87.5787 96.0946L88.5807 97.8254ZM103.68 94C109.121 94 114.03 95.2418 118.43 97.712L119.409 95.968C114.689 93.3181 109.439 92 103.68 92V94ZM118.442 97.7185C122.842 100.112 126.31 103.463 128.858 107.788L130.581 106.772C127.849 102.137 124.117 98.5282 119.397 95.9615L118.442 97.7185ZM128.862 107.794C131.399 112.023 132.68 116.881 132.68 122.4H134.68C134.68 116.559 133.32 111.337 130.577 106.766L128.862 107.794ZM132.68 122.4C132.68 127.191 131.522 131.749 129.198 136.088L130.961 137.032C133.437 132.411 134.68 127.529 134.68 122.4H132.68ZM129.195 136.094C126.965 140.323 123.656 143.794 119.236 146.508L120.283 148.212C124.984 145.326 128.554 141.597 130.964 137.026L129.195 136.094ZM119.247 146.501C114.866 149.115 109.689 150.44 103.68 150.44V152.44C109.991 152.44 115.534 151.045 120.272 148.219L119.247 146.501ZM103.68 138.64C108.603 138.64 112.666 137.215 115.766 134.287L114.393 132.833C111.733 135.345 108.196 136.64 103.68 136.64V138.64ZM115.767 134.286C118.944 131.281 120.52 127.41 120.52 122.76H118.52C118.52 126.91 117.136 130.239 114.392 132.834L115.767 134.286ZM120.52 122.76C120.52 117.961 118.952 113.938 115.787 110.773L114.373 112.187C117.127 114.942 118.52 118.439 118.52 122.76H120.52ZM115.796 110.783C112.701 107.601 108.628 106.04 103.68 106.04V108.04C108.172 108.04 111.699 109.439 114.363 112.177L115.796 110.783ZM103.68 106.04C99.0296 106.04 95.0905 107.615 91.9326 110.773L93.3468 112.187C96.1089 109.425 99.5298 108.04 103.68 108.04V106.04ZM91.9423 110.763C88.7752 113.845 87.1997 117.75 87.1997 122.4H89.1997C89.1997 118.25 90.5842 114.875 93.337 112.197L91.9423 110.763ZM87.1997 122.4C87.1997 127.273 88.7643 131.271 91.9525 134.286L93.3269 132.834C90.5951 130.249 89.1997 126.807 89.1997 122.4H87.1997ZM91.9631 134.296C95.1257 137.203 99.0548 138.64 103.68 138.64V136.64C99.5046 136.64 96.0737 135.357 93.3163 132.824L91.9631 134.296ZM198.997 147.36L198.603 148.279L198.624 148.288L198.646 148.296L198.997 147.36ZM200.917 147.72H201.917V146.72H200.917V147.72ZM200.917 150V151H201.917V150H200.917ZM179.797 150H178.797V151H179.797V150ZM179.797 147.72V146.72H178.797V147.72H179.797ZM181.597 147.36L181.246 146.424L181.224 146.432L181.203 146.441L181.597 147.36ZM179.557 111L178.729 111.56L178.736 111.57L179.557 111ZM160.597 110.64L159.869 109.955L159.864 109.96L159.858 109.966L160.597 110.64ZM157.717 147.36L157.323 148.279L157.344 148.288L157.366 148.296L157.717 147.36ZM159.637 147.72H160.637V146.72H159.637V147.72ZM159.637 150V151H160.637V150H159.637ZM138.637 150H137.637V151H138.637V150ZM138.637 147.72V146.72H137.637V147.72H138.637ZM140.437 147.36L140.086 146.424L140.064 146.432L140.043 146.441L140.437 147.36ZM140.437 97.44L140.043 98.3591L140.064 98.3682L140.086 98.3763L140.437 97.44ZM138.757 97.08H137.757V98.08H138.757V97.08ZM138.757 94.8V93.8H137.757V94.8H138.757ZM156.877 94.8H157.877V93.8H156.877V94.8ZM156.877 99.72H155.877V102.004L157.555 100.455L156.877 99.72ZM164.197 95.28L164.545 96.2174L164.553 96.2148L164.56 96.212L164.197 95.28ZM186.277 96.84L185.779 97.7071L185.787 97.7116L186.277 96.84ZM195.037 105.6L194.159 106.078L194.165 106.089L194.171 106.1L195.037 105.6ZM197.157 146.4C197.157 147.394 197.895 147.976 198.603 148.279L199.391 146.441C199.296 146.4 199.229 146.363 199.184 146.333C199.139 146.303 199.122 146.284 199.12 146.281C199.119 146.28 199.131 146.294 199.142 146.323C199.153 146.352 199.157 146.38 199.157 146.4H197.157ZM198.646 148.296C199.391 148.576 200.149 148.72 200.917 148.72V146.72C200.405 146.72 199.884 146.624 199.348 146.424L198.646 148.296ZM199.917 147.72V150H201.917V147.72H199.917ZM200.917 149H179.797V151H200.917V149ZM180.797 150V147.72H178.797V150H180.797ZM179.797 148.72C180.566 148.72 181.3 148.575 181.991 148.279L181.203 146.441C180.774 146.625 180.309 146.72 179.797 146.72V148.72ZM181.948 148.296C182.672 148.025 183.557 147.469 183.557 146.4H181.557C181.557 146.362 181.566 146.319 181.583 146.279C181.6 146.241 181.616 146.227 181.61 146.233C181.603 146.24 181.575 146.265 181.513 146.301C181.452 146.337 181.365 146.379 181.246 146.424L181.948 148.296ZM183.557 146.4V121.44H181.557V146.4H183.557ZM183.557 121.44C183.557 117.19 182.513 113.503 180.379 110.43L178.736 111.57C180.601 114.257 181.557 117.53 181.557 121.44H183.557ZM180.386 110.44C178.175 107.168 174.843 105.56 170.557 105.56V107.56C174.272 107.56 176.939 108.912 178.729 111.56L180.386 110.44ZM170.557 105.56C166.23 105.56 162.637 107.014 159.869 109.955L161.325 111.325C163.678 108.826 166.725 107.56 170.557 107.56V105.56ZM159.858 109.966C157.154 112.932 155.877 117.129 155.877 122.4H157.877C157.877 117.431 159.08 113.788 161.336 111.314L159.858 109.966ZM155.877 122.4V146.4H157.877V122.4H155.877ZM155.877 146.4C155.877 147.394 156.615 147.976 157.323 148.279L158.111 146.441C158.016 146.4 157.949 146.363 157.904 146.333C157.859 146.303 157.842 146.284 157.84 146.281C157.839 146.28 157.851 146.294 157.862 146.323C157.873 146.352 157.877 146.38 157.877 146.4H155.877ZM157.366 148.296C158.111 148.576 158.869 148.72 159.637 148.72V146.72C159.125 146.72 158.604 146.624 158.068 146.424L157.366 148.296ZM158.637 147.72V150H160.637V147.72H158.637ZM159.637 149H138.637V151H159.637V149ZM139.637 150V147.72H137.637V150H139.637ZM138.637 148.72C139.406 148.72 140.14 148.575 140.831 148.279L140.043 146.441C139.614 146.625 139.149 146.72 138.637 146.72V148.72ZM140.788 148.296C141.512 148.025 142.397 147.469 142.397 146.4H140.397C140.397 146.362 140.406 146.319 140.423 146.279C140.44 146.241 140.456 146.227 140.45 146.233C140.443 146.24 140.415 146.265 140.353 146.301C140.292 146.337 140.205 146.379 140.086 146.424L140.788 148.296ZM142.397 146.4V98.4H140.397V146.4H142.397ZM142.397 98.4C142.397 97.3313 141.512 96.7752 140.788 96.5037L140.086 98.3763C140.205 98.4208 140.292 98.4628 140.353 98.4988C140.415 98.5349 140.443 98.5598 140.45 98.5671C140.456 98.5731 140.44 98.5587 140.423 98.5211C140.406 98.4813 140.397 98.4377 140.397 98.4H142.397ZM140.831 96.5209C140.158 96.2322 139.464 96.08 138.757 96.08V98.08C139.17 98.08 139.597 98.1678 140.043 98.3591L140.831 96.5209ZM139.757 97.08V94.8H137.757V97.08H139.757ZM138.757 95.8H156.877V93.8H138.757V95.8ZM155.877 94.8V99.72H157.877V94.8H155.877ZM157.555 100.455C159.534 98.628 161.861 97.2146 164.545 96.2174L163.849 94.3426C160.934 95.4254 158.38 96.972 156.199 98.9852L157.555 100.455ZM164.56 96.212C167.329 95.1349 170.127 94.6 172.957 94.6V92.6C169.868 92.6 166.825 93.1851 163.835 94.348L164.56 96.212ZM172.957 94.6C177.934 94.6 182.196 95.6487 185.779 97.7071L186.775 95.9729C182.838 93.7113 178.22 92.6 172.957 92.6V94.6ZM185.787 97.7116C189.472 99.7844 192.253 102.572 194.159 106.078L195.916 105.122C193.821 101.268 190.762 98.2156 186.767 95.9684L185.787 97.7116ZM194.171 106.1C196.157 109.536 197.157 113.402 197.157 117.72H199.157C199.157 113.078 198.078 108.864 195.903 105.1L194.171 106.1ZM197.157 117.72V146.4H199.157V117.72H197.157ZM220.277 148.68L219.774 149.544L220.277 148.68ZM209.717 138.24L208.852 138.743L208.859 138.754L209.717 138.24ZM209.717 107.64L208.844 107.152L208.841 107.157L209.717 107.64ZM220.277 96.84L220.768 97.7112L220.779 97.7043L220.277 96.84ZM244.397 94.32L244.08 95.2687L244.089 95.2714L244.397 94.32ZM250.877 97.56L250.252 98.3409L250.273 98.3579L250.295 98.3737L250.877 97.56ZM257.117 102.72L257.824 102.013L257.806 101.995L257.787 101.978L257.117 102.72ZM258.797 102.6L258.349 101.706L258.315 101.723L258.282 101.743L258.797 102.6ZM259.877 101.88L260.609 101.2L259.903 100.439L259.169 101.173L259.877 101.88ZM261.437 103.56L262.116 104.294L262.851 103.613L262.169 102.88L261.437 103.56ZM248.477 115.56L247.744 116.24L248.423 116.972L249.156 116.294L248.477 115.56ZM246.917 113.88L246.292 113.099L245.451 113.772L246.184 114.56L246.917 113.88ZM247.877 112.56L246.982 112.113L246.969 112.139L246.957 112.166L247.877 112.56ZM247.997 111.12L248.797 110.52L248.784 110.503L248.771 110.487L247.997 111.12ZM224.597 110.4L223.899 109.684L223.889 109.693L224.597 110.4ZM241.997 138.12L242.342 139.058L242.364 139.05L242.385 139.042L241.997 138.12ZM247.157 134.64L247.815 135.393L247.84 135.371L247.864 135.347L247.157 134.64ZM246.557 132.48L245.776 131.855L245.217 132.554L245.849 133.187L246.557 132.48ZM247.997 130.68L248.637 129.912L247.853 129.259L247.216 130.055L247.997 130.68ZM260.957 141.48L261.716 142.131L262.376 141.361L261.597 140.712L260.957 141.48ZM259.517 143.16L259.026 144.032L259.742 144.434L260.276 143.811L259.517 143.16ZM256.877 142.8L256.169 142.093L256.151 142.111L256.134 142.13L256.877 142.8ZM247.517 150.12L247.078 149.221L247.069 149.226L247.517 150.12ZM234.557 151.52C229.612 151.52 225.026 150.286 220.779 147.816L219.774 149.544C224.327 152.194 229.261 153.52 234.557 153.52V151.52ZM220.779 147.816C216.527 145.341 213.128 141.982 210.574 137.726L208.859 138.754C211.585 143.298 215.227 146.899 219.774 149.544L220.779 147.816ZM210.581 137.737C208.112 133.493 206.877 128.867 206.877 123.84H204.877C204.877 129.213 206.201 134.187 208.852 138.743L210.581 137.737ZM206.877 123.84C206.877 117.821 208.126 112.593 210.592 108.123L208.841 107.157C206.187 111.967 204.877 117.539 204.877 123.84H206.877ZM210.589 108.128C213.146 103.557 216.539 100.095 220.768 97.7112L219.786 95.9688C215.214 98.5454 211.567 102.283 208.844 107.152L210.589 108.128ZM220.779 97.7043C225.021 95.2366 229.686 94 234.797 94V92C229.347 92 224.332 93.3234 219.774 95.9756L220.779 97.7043ZM234.797 94C238.484 94 241.571 94.4322 244.08 95.2687L244.713 93.3713C241.942 92.4477 238.629 92 234.797 92V94ZM244.089 95.2714C246.736 96.1278 248.776 97.1599 250.252 98.3409L251.501 96.7791C249.778 95.4001 247.497 94.2722 244.704 93.3686L244.089 95.2714ZM250.295 98.3737C251.931 99.5423 253.98 101.234 256.446 103.462L257.787 101.978C255.294 99.7259 253.182 97.9777 251.458 96.7463L250.295 98.3737ZM256.409 103.427C256.769 103.787 257.229 103.96 257.717 103.96V101.96C257.709 101.96 257.727 101.959 257.758 101.972C257.79 101.984 257.813 102.002 257.824 102.013L256.409 103.427ZM257.717 103.96C258.282 103.96 258.822 103.751 259.311 103.457L258.282 101.743C257.971 101.929 257.791 101.96 257.717 101.96V103.96ZM259.244 103.494C259.771 103.231 260.237 102.934 260.584 102.587L259.169 101.173C259.036 101.306 258.782 101.489 258.349 101.706L259.244 103.494ZM259.144 102.56L260.704 104.24L262.169 102.88L260.609 101.2L259.144 102.56ZM260.757 102.826L247.797 114.826L249.156 116.294L262.116 104.294L260.757 102.826ZM249.209 114.88L247.649 113.2L246.184 114.56L247.744 116.24L249.209 114.88ZM247.541 114.661C248.092 114.22 248.503 113.637 248.796 112.954L246.957 112.166C246.77 112.603 246.541 112.9 246.292 113.099L247.541 114.661ZM248.771 113.007C249.123 112.304 249.403 111.329 248.797 110.52L247.197 111.72C247.174 111.69 247.16 111.658 247.154 111.633C247.148 111.61 247.152 111.608 247.15 111.637C247.144 111.704 247.11 111.856 246.982 112.113L248.771 113.007ZM248.771 110.487C245.678 106.708 241.42 104.84 236.117 104.84V106.84C240.893 106.84 244.555 108.492 247.223 111.753L248.771 110.487ZM236.117 104.84C231.309 104.84 227.215 106.453 223.899 109.684L225.294 111.116C228.218 108.267 231.804 106.84 236.117 106.84V104.84ZM223.889 109.693C220.636 112.946 219.037 117.174 219.037 122.28H221.037C221.037 117.626 222.477 113.934 225.304 111.107L223.889 109.693ZM219.037 122.28C219.037 127.528 220.585 131.836 223.76 135.098L225.193 133.702C222.448 130.884 221.037 127.112 221.037 122.28H219.037ZM223.76 135.098C226.934 138.357 231.085 139.96 236.117 139.96V137.96C231.548 137.96 227.939 136.523 225.193 133.702L223.76 135.098ZM236.117 139.96C238.583 139.96 240.672 139.674 242.342 139.058L241.651 137.182C240.281 137.686 238.45 137.96 236.117 137.96V139.96ZM242.385 139.042C244.042 138.344 245.854 137.109 247.815 135.393L246.498 133.887C244.62 135.531 242.991 136.616 241.609 137.198L242.385 139.042ZM247.864 135.347C248.223 134.987 248.397 134.527 248.397 134.04H246.397C246.397 134.047 246.396 134.029 246.408 133.999C246.421 133.967 246.439 133.944 246.449 133.933L247.864 135.347ZM248.397 134.04C248.397 133.167 247.895 132.405 247.264 131.773L245.849 133.187C246.338 133.675 246.397 133.953 246.397 134.04H248.397ZM247.337 133.105L248.777 131.305L247.216 130.055L245.776 131.855L247.337 133.105ZM247.356 131.448L260.316 142.248L261.597 140.712L248.637 129.912L247.356 131.448ZM260.197 140.829L258.757 142.509L260.276 143.811L261.716 142.131L260.197 140.829ZM260.007 142.288C259.319 141.902 258.652 141.624 258.032 141.539C257.386 141.451 256.695 141.567 256.169 142.093L257.584 143.507C257.538 143.553 257.527 143.489 257.761 143.521C258.021 143.556 258.434 143.698 259.026 144.032L260.007 142.288ZM256.134 142.13C253.242 145.335 250.222 147.688 247.078 149.221L247.955 151.019C251.371 149.352 254.591 146.825 257.619 143.47L256.134 142.13ZM247.069 149.226C244.062 150.729 239.915 151.52 234.557 151.52V153.52C240.078 153.52 244.571 152.711 247.964 151.014L247.069 149.226ZM307.84 96.36L307.321 97.2149L307.332 97.2215L307.84 96.36ZM318.04 107.16L317.149 107.613L318.04 107.16ZM321.16 127.32V128.32H322.027L322.15 127.461L321.16 127.32ZM277.24 127.32V126.32H276.153L276.243 127.403L277.24 127.32ZM282.28 136.32L282.859 135.505L282.28 136.32ZM300.4 138.36L300.029 137.432L300.022 137.434L300.015 137.437L300.4 138.36ZM305.68 134.76L306.405 135.449L306.508 135.341L306.574 135.207L305.68 134.76ZM305.56 133.2L304.703 133.714L304.729 133.759L304.76 133.8L305.56 133.2ZM304.84 132.36L304.059 131.735L303.378 132.587L304.285 133.192L304.84 132.36ZM306.28 130.56L306.897 129.773L306.118 129.162L305.499 129.935L306.28 130.56ZM319.6 141L320.406 141.591L320.979 140.81L320.217 140.213L319.6 141ZM318.28 142.8L317.766 143.657L318.547 144.127L319.086 143.391L318.28 142.8ZM315.76 142.56L315.001 141.909L314.992 141.92L315.76 142.56ZM277.12 148.68L276.614 149.543L276.625 149.549L277.12 148.68ZM266.32 137.88L265.441 138.358L265.447 138.367L265.452 138.376L266.32 137.88ZM266.32 107.04L265.438 106.569L266.32 107.04ZM276.64 96.24L277.143 97.1044L277.148 97.1015L276.64 96.24ZM307.12 116.16V117.16H308.222L308.115 116.063L307.12 116.16ZM302.08 107.88L301.463 108.667L301.475 108.676L301.487 108.685L302.08 107.88ZM282.28 107.88L282.916 108.652L282.922 108.646L282.929 108.641L282.28 107.88ZM277.36 116.16L276.374 115.992L276.175 117.16H277.36V116.16ZM291.88 93.28C297.889 93.28 303.023 94.6053 307.321 97.2148L308.359 95.5052C303.697 92.6747 298.191 91.28 291.88 91.28V93.28ZM307.332 97.2215C311.651 99.7665 314.917 103.226 317.149 107.613L318.931 106.707C316.523 101.974 312.989 98.2335 308.348 95.4985L307.332 97.2215ZM317.149 107.613C319.392 112.022 320.52 116.905 320.52 122.28H322.52C322.52 116.615 321.328 111.418 318.931 106.707L317.149 107.613ZM320.52 122.28C320.52 123.912 320.403 125.545 320.17 127.179L322.15 127.461C322.397 125.735 322.52 124.008 322.52 122.28H320.52ZM321.16 126.32H277.24V128.32H321.16V126.32ZM276.243 127.403C276.587 131.525 278.412 134.798 281.701 137.135L282.859 135.505C280.068 133.522 278.533 130.795 278.237 127.237L276.243 127.403ZM281.701 137.135C284.933 139.431 288.782 140.56 293.2 140.56V138.56C289.138 138.56 285.707 137.529 282.859 135.505L281.701 137.135ZM293.2 140.56C296.165 140.56 298.706 140.149 300.785 139.283L300.015 137.437C298.254 138.171 295.995 138.56 293.2 138.56V140.56ZM300.771 139.288C302.908 138.434 304.788 137.151 306.405 135.449L304.955 134.071C303.532 135.569 301.892 136.686 300.029 137.432L300.771 139.288ZM306.574 135.207C306.66 135.036 306.734 134.878 306.788 134.741C306.816 134.673 306.844 134.596 306.867 134.517C306.885 134.453 306.92 134.32 306.92 134.16H304.92C304.92 134.092 304.928 134.041 304.932 134.017C304.937 133.99 304.942 133.973 304.943 133.968C304.946 133.959 304.944 133.967 304.932 133.999C304.906 134.062 304.86 134.164 304.786 134.313L306.574 135.207ZM306.92 134.16C306.92 133.575 306.697 133.049 306.36 132.6L304.76 133.8C304.903 133.991 304.92 134.105 304.92 134.16H306.92ZM306.417 132.686C306.143 132.228 305.811 131.805 305.395 131.528L304.285 133.192C304.349 133.235 304.497 133.372 304.703 133.714L306.417 132.686ZM305.621 132.985L307.061 131.185L305.499 129.935L304.059 131.735L305.621 132.985ZM305.663 131.347L318.983 141.787L320.217 140.213L306.897 129.773L305.663 131.347ZM318.794 140.409L317.474 142.209L319.086 143.391L320.406 141.591L318.794 140.409ZM318.794 141.943C318.14 141.55 317.48 141.265 316.845 141.204C316.155 141.139 315.485 141.344 315.001 141.909L316.519 143.211C316.528 143.2 316.532 143.198 316.531 143.199C316.53 143.199 316.529 143.2 316.529 143.2C316.529 143.2 316.564 143.187 316.655 143.195C316.86 143.215 317.22 143.33 317.766 143.657L318.794 141.943ZM314.992 141.92C309.598 148.392 302.37 151.64 293.2 151.64V153.64C302.91 153.64 310.722 150.168 316.528 143.2L314.992 141.92ZM293.2 151.64C287.269 151.64 282.084 150.354 277.615 147.811L276.625 149.549C281.436 152.286 286.971 153.64 293.2 153.64V151.64ZM277.626 147.817C273.13 145.182 269.658 141.706 267.188 137.384L265.452 138.376C268.102 143.014 271.83 146.738 276.614 149.543L277.626 147.817ZM267.198 137.402C264.803 132.998 263.6 128.124 263.6 122.76H261.6C261.6 128.436 262.877 133.642 265.441 138.358L267.198 137.402ZM263.6 122.76C263.6 117.066 264.808 111.991 267.202 107.511L265.438 106.569C262.872 111.369 261.6 116.774 261.6 122.76H263.6ZM267.202 107.511C269.598 103.029 272.909 99.5678 277.143 97.1043L276.137 95.3756C271.571 98.0322 268.002 101.771 265.438 106.569L267.202 107.511ZM277.148 97.1015C281.46 94.5604 286.362 93.28 291.88 93.28V91.28C286.038 91.28 280.78 92.6395 276.132 95.3785L277.148 97.1015ZM308.115 116.063C307.764 112.458 305.905 109.456 302.673 107.075L301.487 108.685C304.335 110.784 305.836 113.302 306.125 116.257L308.115 116.063ZM302.697 107.093C299.561 104.635 295.984 103.4 292 103.4V105.4C295.536 105.4 298.679 106.485 301.463 108.667L302.697 107.093ZM292 103.4C288.016 103.4 284.542 104.636 281.631 107.119L282.929 108.641C285.458 106.484 288.465 105.4 292 105.4V103.4ZM281.644 107.108C278.751 109.491 276.977 112.46 276.374 115.992L278.346 116.328C278.863 113.3 280.369 110.749 282.916 108.652L281.644 107.108ZM277.36 117.16H307.12V115.16H277.36V117.16Z" fill="#151EE3" mask="url(#path-2-outside-1_489_2)"/>
</svg>
